<?xml version="1.0" encoding="UTF-8" standalone="no"?>
<!-- Created with Inkscape (http://www.inkscape.org/) -->

<svg
   version="1.1"
   width="1000"
   height="999.91602"
   xml:space="preserve"
   viewBox="0 0 1000 999.91602"
   id="svg48639"
   xmlns="http://www.w3.org/2000/svg"
   xmlns:svg="http://www.w3.org/2000/svg"><defs
     id="defs2" /><path
     d="M 769.25058,703.16396 C 729.97593,702.47643 709.95185,682.53827 691.73252,662.60011 734.27293,612.49692 755.24235,547.61191 750.85939,482.98476 742.17944,356.05088 639.56682,254.89908 511.94566,248.96921 440.44344,245.61753 370.74596,273.29033 320.6428,324.33889 270.5397,375.47341 244.49981,443.45225 249.39839,517.27494 257.82055,644.72451 363.61293,751.37652 500.17186,751.29056 529.82123,751.29056 559.72842,746.30603 590.58094,734.53218 594.36231,732.98527 594.44825,728.34448 592.72944,725.93817 586.54173,716.74257 574.59607,704.36714 568.2365,699.89824 562.99414,696.20282 549.07182,686.06184 527.58677,688.64004 519.59435,689.67133 514.43792,690.35885 500.08593,690.35885 395.4967,690.44478 314.88485,607.77017 309.98625,509.71225 307.15023,454.53852 328.63528,400.82583 368.59746,362.58234 408.55964,324.33889 463.04574,305.43201 518.30523,310.58843 608.37057,319.09651 680.47436,390.42702 689.41215,480.23467 690.52937,490.8913 690.78717,501.37598 690.18561,511.86075 688.4668,537.47096 681.41971,580.69897 643.7779,624.78637 636.81673,621.60656 628.99623,620.31747 624.09759,619.97369 594.10449,617.99708 579.06494,632.95069 573.99451,639.48215 571.0725,643.26356 573.65069,647.99028 578.03366,648.84965 583.87758,649.96689 600.20626,654.43579 621.51942,672.82702 628.39462,678.75692 635.01202,685.97591 641.1997,693.02301 667.49744,722.84429 701.44375,762.29093 769.25058,763.23628 H 769.33654 C 772.43037,763.23628 775.00857,760.65805 775.00857,757.56423 V 708.83603 C 775.00857,705.65622 772.43037,703.16396 769.33654,703.16396 Z M 769.25058,703.16396"
     id="path9547"
     style="fill:#12304c" /><path
     d="M 0,993.12673 C 0,996.9081 3.0938469,999.916 6.7892817,999.916 H 993.12477 C 996.90614,999.916 1000,996.9081 1000,993.12673 V 6.7892922 C 1000,3.0938528 996.90614,0 993.12477,0 H 6.7892817 C 3.0938469,0 0.08593348,3.0938528 0,6.7892922 Z M 941.64656,941.64842 H 58.267437 V 58.26755 H 941.64656 Z M 941.64656,941.64842"
     id="path9549"
     style="fill:#da5a41" /></svg>
